# xmcd
#
# Track frame offsets:
#	150
#	18036
#	33440
#	49385
#	65416
#	78408
#	94001
#	111696
#	128036
#	141988
#
# Disc length: 2048 seconds
#
# Revision: 1
# Processed by: cddbd v1.5.2PL0 Copyright (c) Steve Scherf et al.
# Submitted via: audiograbber 1.83.01
#
DISCID=8807fe0a
DTITLE=Various Artist - Nu Country Traxx 006
DYEAR=1999
DGENRE=Country
TTITLE0=Bryan White - God Gave Me You
TTITLE1=Jack Ingram - How Many Days
TTITLE2=Oak Ridge Boys - Ain't No Short Way Home
TTITLE3=Lonestar - Smile
TTITLE4=Shana Petrone - Something Real
TTITLE5=Tara Lyn Hart - Stuff That Matters
TTITLE6=T Hraham Brown - Memphis Women and Chicken
TTITLE7=Kenny Chesney - She Thinks My Tractor's Sexy
TTITLE8=Alan Jackson - Pop A Top
TTITLE9=Sherrie Austin - Little Bird
EXTD=
EXTT0=
EXTT1=
EXTT2=
EXTT3=
EXTT4=
EXTT5=
EXTT6=
EXTT7=
EXTT8=
EXTT9=
PLAYORDER=
